<?xml version="1.0" standalone="no"?>
<!DOCTYPE svg PUBLIC "-//W3C//DTD SVG 20010904//EN"
 "http://www.w3.org/TR/2001/REC-SVG-20010904/DTD/svg10.dtd">
<svg version="1.0" xmlns="http://www.w3.org/2000/svg"
 width="300.000000pt" height="159.000000pt" viewBox="0 0 300.000000 159.000000"
 preserveAspectRatio="xMidYMid meet">

<g transform="translate(0.000000,159.000000) scale(0.100000,-0.100000)"
fill="#800000" stroke="none">
<path d="M1406 1559 c-142 -15 -225 -51 -358 -155 -31 -24 -67 -44 -81 -44
-28 0 -62 -33 -54 -54 6 -16 5 -17 -110 -56 -45 -16 -84 -26 -87 -23 -7 7
-162 -45 -226 -77 -30 -15 -63 -37 -73 -47 -16 -19 -16 -21 3 -38 14 -13 20
-31 20 -62 0 -51 -11 -54 -42 -13 -14 20 -25 27 -32 20 -5 -5 -11 -65 -13
-134 l-4 -124 31 -26 c55 -45 113 -55 479 -77 321 -19 432 -19 521 0 30 6 38
3 60 -22 27 -30 110 -51 110 -28 0 7 5 9 11 5 7 -4 24 -7 38 -6 26 1 649 216
660 228 7 7 12 9 -183 -51 -81 -26 -150 -45 -152 -43 -2 2 75 31 170 64 96 32
173 60 171 62 -1 2 -127 -34 -279 -79 -153 -45 -279 -79 -282 -76 -3 3 -1 14
5 25 7 13 7 22 -1 30 -9 9 -9 12 1 12 7 0 9 4 6 10 -3 5 -2 10 3 10 5 0 12 27
15 59 13 119 -42 216 -119 209 -45 -3 -58 17 -19 32 44 17 75 12 105 -19 38
-38 64 -127 64 -223 1 -43 3 -78 7 -78 3 0 32 9 64 20 33 11 63 19 68 17 5 -1
-25 -14 -67 -27 -68 -21 -107 -43 -95 -54 6 -6 272 77 457 143 l171 62 21 -21
c15 -15 33 -20 70 -20 71 0 94 25 110 119 12 62 19 77 52 111 29 28 33 37 18
33 -11 -3 -20 0 -20 6 0 6 4 11 8 11 5 0 17 6 27 14 18 13 18 14 -8 9 -33 -6
-36 10 -4 25 l22 11 -25 1 -25 0 25 20 25 21 -27 -7 c-16 -3 -28 -4 -28 0 0 3
12 12 28 21 l27 16 -27 -6 c-34 -7 -37 7 -5 24 21 11 21 11 -7 7 l-30 -4 24
18 23 18 -38 -2 c-40 -1 -59 18 -28 28 10 3 1 3 -21 1 -25 -3 -43 1 -53 11
-18 17 -17 18 22 32 28 10 27 10 -22 11 -66 1 -68 16 -5 29 l47 10 -73 1 c-85
1 -87 15 -5 27 l58 9 -95 5 -95 5 65 11 65 11 -100 3 c-70 2 -91 5 -70 10 41
10 -790 9 -889 -1z m890 -43 c50 -23 191 -146 167 -146 -45 0 -468 -83 -486
-95 -24 -17 -83 -20 -121 -6 -16 7 -35 6 -55 -2 -17 -6 -33 -8 -37 -4 -11 10
24 126 54 182 47 85 119 108 321 99 83 -3 115 -9 157 -28z m-548 -30 c3 -4 -9
-54 -28 -111 l-34 -105 -107 0 c-129 0 -485 18 -554 28 l-50 7 75 63 c95 81
147 111 207 122 52 10 481 6 491 -4z m597 -207 c-79 -21 -95 -23 -95 -10 0 4
28 13 63 18 97 16 108 13 32 -8z m72 -15 c-3 -3 -12 -4 -19 -1 -8 3 -5 6 6 6
11 1 17 -2 13 -5z m-38 -8 c-10 -10 -119 -33 -119 -25 0 5 12 11 28 15 15 3
32 7 37 9 15 5 59 6 54 1z m-599 -45 c24 -28 27 -29 79 -19 72 13 75 4 4 -14
-54 -14 -60 -13 -83 4 -24 17 -28 17 -122 -6 -119 -30 -207 -68 -244 -107 -15
-16 -35 -29 -44 -29 -9 0 -25 -19 -38 -46 l-22 -45 -69 7 c-50 4 -83 2 -124
-10 -60 -18 -107 -21 -107 -7 0 4 10 23 23 42 25 37 17 35 229 54 59 6 70 10
105 44 38 38 103 65 261 112 58 17 72 25 72 41 0 17 4 19 28 14 15 -4 38 -20
52 -35z m785 -1 c22 -43 18 -61 -5 -22 -12 19 -28 32 -40 32 -12 0 -18 5 -15
10 12 20 45 10 60 -20z m-230 -5 c-66 -21 -87 -23 -72 -9 8 8 105 32 127 32 8
0 -16 -10 -55 -23z m-875 5 c-14 -4 -79 -24 -145 -43 -66 -20 -129 -38 -140
-42 -11 -3 0 4 25 16 45 21 242 78 270 77 8 0 4 -3 -10 -8z m497 -6 c-3 -3
-12 -4 -19 -1 -8 3 -5 6 6 6 11 1 17 -2 13 -5z m358 -44 c-44 -20 -75 -26 -59
-11 9 9 70 29 89 29 6 0 -8 -8 -30 -18z m-1756 -19 c-24 -16 -52 -43 -62 -60
-18 -31 -18 -31 3 -31 11 0 36 16 55 35 19 19 45 39 57 46 13 6 4 -5 -19 -26
-24 -20 -43 -41 -43 -46 0 -21 48 -7 76 22 16 17 38 35 49 40 11 6 3 -4 -17
-21 -73 -62 -25 -71 55 -11 29 21 63 44 77 50 21 10 22 9 6 -1 -79 -55 -107
-81 -95 -89 24 -15 45 -10 85 22 54 43 87 58 44 21 -19 -17 -38 -31 -42 -32
-5 0 -8 -4 -8 -10 0 -24 71 -9 117 24 50 35 106 66 120 66 4 0 -16 -14 -46
-30 -59 -32 -91 -58 -91 -72 0 -14 57 -9 70 7 14 17 122 80 155 90 11 4 -7 -8
-40 -27 -97 -54 -127 -79 -113 -96 11 -13 -8 -91 -47 -187 -7 -16 -20 -54 -30
-83 -13 -40 -22 -53 -41 -58 -24 -6 -290 21 -320 33 -15 6 -26 42 -44 143 -14
77 -5 193 17 231 15 26 87 79 107 79 5 0 -10 -13 -35 -29z m181 14 c0 -2 -10
-9 -22 -15 -22 -11 -22 -10 -4 4 21 17 26 19 26 11z m190 0 c0 -2 -10 -9 -22
-15 -22 -11 -22 -10 -4 4 21 17 26 19 26 11z m950 -16 c-79 -23 -80 -23 -80
-3 0 8 4 13 9 10 4 -3 28 -2 52 3 77 15 86 10 19 -10z m420 -29 c-39 -21 -50
-24 -50 -11 0 4 15 13 33 19 50 16 55 13 17 -8z m-1160 0 c-8 -5 -19 -10 -25
-10 -5 0 -3 5 5 10 8 5 20 10 25 10 6 0 3 -5 -5 -10z m805 4 c-62 -24 -135
-40 -135 -30 0 8 24 17 58 23 61 11 93 14 77 7z m12 -40 c-3 -3 -12 -4 -19 -1
-8 3 -5 6 6 6 11 1 17 -2 13 -5z m343 -14 c-39 -21 -50 -24 -50 -11 0 4 15 13
33 19 50 16 55 13 17 -8z m228 -16 c-5 -28 -28 -29 -28 -1 0 13 3 27 7 31 10
10 25 -10 21 -30z m-657 7 c-30 -9 -57 -23 -59 -30 -5 -14 11 -13 108 5 35 6
16 -2 -57 -25 l-63 -19 0 40 c0 21 3 37 8 34 4 -2 23 -1 42 4 62 14 76 8 21
-9z m438 -35 c-15 -13 -49 -25 -49 -17 0 5 8 12 18 14 24 6 36 8 31 3z m-652
-22 c-3 -3 -12 -4 -19 -1 -8 3 -5 6 6 6 11 1 17 -2 13 -5z m218 -35 c-66 -21
-94 -24 -79 -10 10 10 87 29 119 29 11 0 -7 -8 -40 -19z m-1467 -5 c32 -16 44
-55 22 -69 -14 -9 -60 40 -60 65 0 24 -1 24 38 4z m1892 11 c0 -2 -12 -11 -27
-19 -24 -13 -25 -15 -8 -16 l20 -1 -20 -9 c-30 -13 -33 -12 -28 14 5 22 12 27
56 35 4 0 7 -1 7 -4z m-417 -45 c-34 -10 -67 -21 -72 -25 -6 -3 -11 0 -11 8 0
9 19 18 53 24 83 16 97 13 30 -7z m-153 -14 c0 -3 -4 -8 -10 -11 -5 -3 -10 -1
-10 4 0 6 5 11 10 11 6 0 10 -2 10 -4z m-403 -22 c-3 -3 -12 -4 -19 -1 -8 3
-5 6 6 6 11 1 17 -2 13 -5z m554 -10 c-24 -7 -52 -16 -62 -19 -13 -5 -19 -1
-19 10 0 9 3 14 8 11 4 -2 23 -1 42 4 57 13 79 9 31 -6z m-644 0 c-3 -3 -12
-4 -19 -1 -8 3 -5 6 6 6 11 1 17 -2 13 -5z m873 -4 c-8 -5 -22 -10 -30 -10
-13 0 -13 1 0 10 8 5 22 10 30 10 13 0 13 -1 0 -10z m-957 -7 c-7 -2 -19 -2
-25 0 -7 3 -2 5 12 5 14 0 19 -2 13 -5z m-85 -10 c-10 -2 -26 -2 -35 0 -10 3
-2 5 17 5 19 0 27 -2 18 -5z m578 -1 c14 -9 13 -40 -3 -67 -12 -20 -12 -20
-26 0 -8 10 -13 25 -11 32 11 38 14 43 21 43 4 0 13 -4 19 -8z m277 -2 c-63
-26 -123 -39 -123 -27 0 7 12 14 28 15 15 1 41 6 57 11 38 12 67 12 38 1z
m-370 -60 c-3 -11 -7 -20 -9 -20 -2 0 -4 9 -4 20 0 11 4 20 9 20 5 0 7 -9 4
-20z m-383 -34 c0 -7 -3 -28 -6 -45 l-6 -31 -107 0 c-125 0 -142 7 -118 44 21
32 56 40 185 44 38 2 52 -2 52 -12z m66 -43 c23 -17 0 -24 -24 -7 -25 17 -28
34 -9 53 10 10 13 8 15 -11 2 -13 10 -28 18 -35z m434 -47 c0 -3 -4 -8 -10
-11 -5 -3 -10 -1 -10 4 0 6 5 11 10 11 6 0 10 -2 10 -4z m-37 -23 c-7 -2 -19
-2 -25 0 -7 3 -2 5 12 5 14 0 19 -2 13 -5z"/>
<path d="M2017 1522 c-3 -4 9 -48 28 -98 23 -61 38 -89 49 -88 103 5 102 4 69
105 l-28 84 -57 3 c-31 2 -59 -1 -61 -6z"/>
<path d="M2197 1453 c14 -43 27 -83 28 -89 3 -11 127 4 140 18 9 9 -19 59 -52
90 -30 29 -91 58 -122 58 -18 0 -18 -3 6 -77z"/>
<path d="M1927 1505 c-53 -18 -67 -32 -99 -102 -33 -74 -36 -93 -8 -68 27 24
117 26 153 2 45 -29 56 -23 46 26 -12 54 -40 140 -48 149 -3 3 -23 1 -44 -7z"/>
<path d="M1243 1461 c-60 -20 -114 -56 -162 -105 l-34 -35 34 -5 c19 -3 68 -8
110 -11 l76 -6 167 83 167 83 -43 7 c-89 14 -261 8 -315 -11z"/>
<path d="M1551 1381 l-154 -78 39 -6 c21 -4 80 -7 129 -7 l91 0 27 82 c14 45
25 83 24 84 -1 1 -71 -33 -156 -75z"/>
<path d="M1370 1330 c-30 -16 -50 -29 -45 -29 6 0 35 13 65 29 30 16 51 29 45
29 -5 0 -35 -13 -65 -29z"/>
<path d="M479 1013 c-18 -46 11 -258 38 -283 7 -7 268 -40 311 -40 37 0 -13
20 -53 21 -22 0 -78 7 -125 14 l-85 13 150 -3 c163 -4 149 2 -70 29 l-110 14
135 -4 c74 -3 150 -7 168 -10 17 -3 32 -1 32 4 0 5 -62 15 -137 22 -273 24
-238 34 56 14 151 -9 98 11 -66 26 -81 7 -157 17 -168 21 -14 7 -8 8 20 4 22
-2 103 -6 180 -9 174 -6 128 9 -58 19 -202 11 -188 20 24 17 132 -3 189 -1
189 7 0 6 -15 11 -32 12 -18 0 -100 7 -183 14 l-150 14 188 -3 c273 -4 255 13
-33 30 -63 4 -126 10 -140 14 -23 7 151 4 313 -4 37 -2 67 1 67 5 0 5 -10 9
-22 9 -13 0 -103 7 -201 14 -185 14 -251 27 -105 20 252 -11 332 -12 315 -2
-21 11 -221 27 -350 28 -86 0 -88 0 -98 -27z"/>
<path d="M140 499 c-62 -25 -100 -85 -100 -156 0 -107 72 -168 198 -168 80 0
92 8 91 60 0 28 -1 29 -11 8 -26 -54 -119 -54 -174 1 -57 57 -56 162 1 216 46
43 165 23 165 -27 0 -7 5 -13 10 -13 6 0 10 17 10 39 0 32 -4 40 -22 45 -35 9
-140 6 -168 -5z"/>
<path d="M1373 500 c15 -10 17 -29 17 -155 0 -127 -2 -145 -17 -154 -13 -8 11
-10 87 -11 133 0 182 20 218 90 41 78 21 160 -52 214 -24 18 -44 21 -149 24
-90 2 -117 0 -104 -8z m158 -20 c100 -28 143 -173 72 -244 -29 -29 -100 -44
-132 -27 -20 11 -21 20 -21 140 0 70 3 131 7 134 9 10 32 9 74 -3z"/>
<path d="M477 423 c-8 -16 -33 -72 -57 -126 -23 -53 -50 -102 -59 -107 -12 -7
-3 -9 34 -10 32 0 45 3 36 9 -11 7 -11 15 -1 45 11 34 14 36 55 36 38 0 44 -3
55 -31 8 -17 13 -37 13 -45 0 -10 14 -14 51 -13 28 1 44 3 35 6 -15 4 -48 67
-109 211 -12 28 -26 52 -31 52 -5 0 -15 -12 -22 -27z m31 -100 c11 -33 11 -33
-23 -33 l-33 0 15 40 c18 44 24 43 41 -7z"/>
<path d="M673 443 c15 -4 17 -19 17 -128 0 -89 -3 -125 -12 -128 -7 -3 14 -5
47 -5 33 0 52 2 43 5 -14 3 -18 15 -18 54 0 62 16 64 62 7 53 -69 49 -67 216
-68 l152 0 0 32 c0 28 -1 30 -13 14 -9 -12 -32 -19 -75 -23 -34 -3 -62 -3 -62
1 0 3 31 53 70 110 38 57 73 111 76 120 5 14 -7 16 -100 16 l-106 0 0 -32 c1
-26 3 -30 10 -16 10 17 101 35 119 23 14 -8 -138 -235 -157 -235 -8 0 -37 24
-63 53 -46 49 -60 77 -40 77 14 0 39 60 34 81 -10 38 -42 49 -133 48 -47 -1
-77 -3 -67 -6z m129 -30 c25 -22 24 -79 -1 -93 -42 -22 -51 -14 -51 50 0 65
14 77 52 43z"/>
<path d="M1743 443 c15 -4 17 -19 17 -128 0 -89 -3 -125 -12 -128 -7 -3 52 -6
132 -6 85 0 139 3 131 8 -11 7 -11 15 -1 45 11 34 14 36 55 36 38 0 44 -3 55
-31 8 -17 13 -37 13 -45 0 -10 14 -14 51 -13 28 1 44 3 35 6 -15 4 -48 67
-109 211 -13 29 -28 51 -34 49 -6 -2 -35 -59 -66 -128 -35 -77 -62 -125 -72
-127 -12 -2 -15 2 -11 17 6 24 -12 29 -21 5 -4 -11 -17 -14 -43 -12 l-38 3 -3
58 c-3 56 -3 57 24 57 15 0 36 -7 46 -17 17 -15 18 -15 18 13 0 28 -1 29 -45
26 l-45 -4 0 47 0 48 37 -6 c21 -4 39 -11 41 -17 6 -16 22 -1 22 21 0 18 -7
19 -97 18 -54 -1 -90 -3 -80 -6z m345 -120 c11 -33 11 -33 -23 -33 l-33 0 15
40 c18 44 24 43 41 -7z"/>
<path d="M2253 443 c15 -4 17 -19 17 -128 0 -89 -3 -125 -12 -128 -7 -3 30 -6
83 -6 92 -1 97 0 102 21 8 29 2 34 -18 14 -17 -16 -51 -21 -79 -10 -13 5 -16
25 -16 115 0 92 3 109 18 118 13 8 1 10 -48 10 -36 -1 -57 -3 -47 -6z"/>
<path d="M2493 443 c15 -4 17 -19 17 -128 0 -89 -3 -125 -12 -128 -7 -3 28 -6
79 -6 84 -1 92 1 98 20 9 28 -2 37 -18 15 -9 -12 -23 -17 -47 -14 l-35 3 -3
58 c-3 56 -3 57 24 57 15 0 36 -7 46 -17 17 -15 18 -15 18 13 0 28 -1 29 -45
26 l-45 -4 0 47 0 48 37 -6 c21 -4 39 -11 41 -17 6 -16 22 -1 22 21 0 18 -7
19 -97 18 -54 -1 -90 -3 -80 -6z"/>
<path d="M2723 443 c15 -4 17 -19 17 -128 0 -89 -3 -125 -12 -128 -7 -3 14 -5
47 -5 33 0 52 2 43 5 -14 3 -18 15 -18 54 0 62 16 64 62 7 46 -60 58 -67 103
-67 39 0 40 0 15 14 -28 15 -100 98 -100 114 0 6 4 11 9 11 14 0 39 60 34 81
-10 38 -42 49 -133 48 -47 -1 -77 -3 -67 -6z m129 -30 c25 -22 24 -79 -1 -93
-42 -22 -51 -14 -51 50 0 65 14 77 52 43z"/>
</g>
</svg>
